Coordinates
version=1
nRows=16
nColumns=40
inDegrees=yes

Units are S.I. units (second, meters, Newtons, ...)
If the header above contains a line with 'inDegrees', this indicates whether rotational values are in degrees (yes) or radians (no).

endheader
time	pelvis_tilt	pelvis_list	pelvis_rotation	pelvis_tx	pelvis_ty	pelvis_tz	hip_flexion_r	hip_adduction_r	hip_rotation_r	knee_angle_r	knee_angle_r_beta	ankle_angle_r	subtalar_angle_r	mtp_angle_r	hip_flexion_l	hip_adduction_l	hip_rotation_l	knee_angle_l	knee_angle_l_beta	ankle_angle_l	subtalar_angle_l	mtp_angle_l	lumbar_extension	lumbar_bending	lumbar_rotation	arm_flex_r	arm_add_r	arm_rot_r	elbow_flex_r	pro_sup_r	wrist_flex_r	wrist_dev_r	arm_flex_l	arm_add_l	arm_rot_l	elbow_flex_l	pro_sup_l	wrist_flex_l	wrist_dev_l
      0.94000000	     19.62536417	      2.83162360	      4.50517656	      1.45901782	      0.98386814	     -0.36917350	     -0.31454154	     -5.47892111	     -5.24293847	     36.73271739	      0.64110686	     -4.73423059	      0.00000000	      0.00000000	    -25.08059608	      5.42759545	      5.34000264	      8.44193815	      0.14733962	     -6.88625073	      0.00000000	      0.00000000	    -33.09757496	     -0.94191017	     -7.99874369	      0.80649902	    -14.91206415	      8.97822645	     43.56804278	     74.03617097	      0.00000000	      0.00000000	      7.74519292	    -25.27085310	     25.31390246	     52.87544547	     77.80645613	      0.00000000	      0.00000000
      0.94400000	     19.82382559	      2.87578578	      4.58499664	      1.46442143	      0.98391440	     -0.36962459	     -0.35230656	     -5.47917665	     -5.47142668	     35.57411064	      0.62088536	     -4.97288014	      0.00000000	      0.00000000	    -26.02171557	      5.37736205	      5.54762592	      7.73459208	      0.13499410	     -7.25239440	      0.00000000	      0.00000000	    -33.30371181	     -0.88212813	     -8.01767570	      0.64230196	    -14.88950950	      8.67635605	     43.77524338	     73.22554638	      0.00000000	      0.00000000	      8.06602367	    -25.31118439	     25.65955983	     52.90429189	     77.94826739	      0.00000000	      0.00000000
      0.94800000	     19.60508402	      2.99499797	      4.55680524	      1.46925263	      0.98315456	     -0.36996375	      0.30944400	     -5.60999894	     -5.49109933	     34.80164615	      0.60740331	     -4.99511824	      0.00000000	      0.00000000	    -26.24929069	      5.52255768	      5.47278874	      7.53566961	      0.13152225	     -7.20902843	      0.00000000	      0.00000000	    -33.13214763	     -0.98395558	     -8.17376610	      0.70975796	    -14.84741581	      8.56213816	     43.80614637	     73.16854882	      0.00000000	      0.00000000	      8.20421771	    -25.37003997	     25.71493770	     53.09273962	     77.92581947	      0.00000000	      0.00000000
      0.95200000	     19.40441110	      3.12607759	      4.54895492	      1.47408227	      0.98247893	     -0.37034740	      0.90989030	     -5.75507384	     -5.59661564	     33.97448448	      0.59296662	     -5.10097794	      0.00000000	      0.00000000	    -26.50070883	      5.66297293	      5.30606386	      7.27886138	      0.12704010	     -7.19911021	      0.00000000	      0.00000000	    -32.99996317	     -1.07258809	     -8.29400424	      0.78872511	    -14.81273441	      8.52748327	     43.79932934	     73.08820882	      0.00000000	      0.00000000	      8.41419409	    -25.47584719	     25.82192633	     53.25401429	     77.95735180	      0.00000000	      0.00000000
      0.95600000	     19.34853371	      3.17146357	      4.59230506	      1.47880105	      0.98209648	     -0.37045969	      1.25901719	     -5.73872720	     -5.70404301	     32.87271640	      0.57373714	     -5.66438447	      0.00000000	      0.00000000	    -26.99391883	      5.64552939	      5.36396615	      6.79588748	      0.11861061	     -7.40742210	      0.00000000	      0.00000000	    -33.02494660	     -1.08187206	     -8.38444705	      0.88529483	    -14.72115230	      8.34252917	     43.72614296	     72.82589125	      0.00000000	      0.00000000	      8.71373329	    -25.56631905	     25.99353408	     53.29487407	     78.01575761	      0.00000000	      0.00000000
      0.96000000	     19.17114928	      3.30493762	      4.52336599	      1.48369066	      0.98129122	     -0.37081853	      1.84519333	     -5.90670426	     -5.84652730	     32.07542917	      0.55982185	     -5.70194598	      0.00000000	      0.00000000	    -27.28972295	      5.84742474	      5.31198297	      6.55417716	      0.11439197	     -7.35063750	      0.00000000	      0.00000000	    -32.89984834	     -1.19640952	     -8.45562562	      0.91689429	    -14.73823272	      8.32097084	     43.82373153	     72.74721931	      0.00000000	      0.00000000	      8.89674089	    -25.58970479	     26.10286212	     53.46420498	     77.98430375	      0.00000000	      0.00000000
      0.96400000	     19.03559137	      3.43304998	      4.48663250	      1.48849061	      0.98072970	     -0.37115084	      2.28136495	     -6.00530395	     -5.88746398	     31.00470044	      0.54113411	     -6.12909627	      0.00000000	      0.00000000	    -27.68306720	      5.98606613	      5.43199292	      6.14204162	      0.10719885	     -7.48422108	      0.00000000	      0.00000000	    -32.86040109	     -1.29095628	     -8.52168413	      0.97503777	    -14.66532046	      8.08260067	     43.81062096	     72.53675311	      0.00000000	      0.00000000	      9.14421803	    -25.60137460	     26.17519437	     53.49510679	     77.89078436	      0.00000000	      0.00000000
      0.96800000	     18.87335335	      3.53318876	      4.48387693	      1.49338193	      0.97997415	     -0.37152949	      2.77444882	     -6.10974867	     -6.17247780	     30.02118016	      0.52396844	     -6.45089170	      0.00000000	      0.00000000	    -28.05613355	      6.07677785	      5.58333313	      5.75453443	      0.10043557	     -7.54954763	      0.00000000	      0.00000000	    -32.75460465	     -1.35343315	     -8.58153189	      1.02046889	    -14.64804872	      7.99049345	     43.80039571	     72.36673881	      0.00000000	      0.00000000	      9.43362387	    -25.62146429	     26.36568874	     53.51684105	     77.84839378	      0.00000000	      0.00000000
      0.97200000	     18.74237664	      3.66112810	      4.47037659	      1.49827400	      0.97924534	     -0.37181983	      3.24294832	     -6.23392342	     -6.42176644	     29.09505296	      0.50780447	     -6.68733369	      0.00000000	      0.00000000	    -28.38721804	      6.21337049	      5.51128917	      5.49735036	      0.09594686	     -7.58200744	      0.00000000	      0.00000000	    -32.68245742	     -1.44896069	     -8.69606598	      1.06578126	    -14.56732228	      7.78032447	     43.81456407	     72.18547451	      0.00000000	      0.00000000	      9.65215063	    -25.66549015	     26.45333782	     53.56440189	     77.78873119	      0.00000000	      0.00000000
      0.97600000	     18.53198161	      3.81282436	      4.39730037	      1.50329358	      0.97827126	     -0.37214315	      3.86040687	     -6.41960713	     -6.71503140	     28.33294063	      0.49450310	     -6.74834498	      0.00000000	      0.00000000	    -28.59863729	      6.42372233	      5.26452955	      5.34523890	      0.09329202	     -7.49965583	      0.00000000	      0.00000000	    -32.50245825	     -1.59997070	     -8.77738458	      1.11874008	    -14.56311142	      7.76814010	     43.80240281	     72.15300913	      0.00000000	      0.00000000	      9.80126122	    -25.71952646	     26.56569109	     53.69782612	     77.81441191	      0.00000000	      0.00000000
      0.98000000	     18.31310846	      3.95576562	      4.42131393	      1.50784203	      0.97745045	     -0.37233372	      4.40967613	     -6.51519565	     -6.89133102	     27.31714375	      0.47677410	     -7.20360003	      0.00000000	      0.00000000	    -28.74860114	      6.55866295	      5.26627079	      5.21029842	      0.09093686	     -7.52502630	      0.00000000	      0.00000000	    -32.40508120	     -1.69843945	     -8.91789108	      1.26824257	    -14.44648534	      7.59977219	     43.73670330	     72.04828589	      0.00000000	      0.00000000	     10.07240051	    -25.76261541	     26.60490074	     53.71228994	     77.81192209	      0.00000000	      0.00000000
      0.98400000	     18.06311400	      4.07975124	      4.40235837	      1.51281226	      0.97628272	     -0.37258327	      5.07047312	     -6.64137748	     -7.22273499	     26.58333884	      0.46396679	     -7.19774161	      0.00000000	      0.00000000	    -28.89629167	      6.72870664	      4.93809682	      5.06792702	      0.08845201	     -7.35744763	      0.00000000	      0.00000000	    -32.20048296	     -1.80397349	     -9.00846970	      1.30727568	    -14.41861283	      7.58149002	     43.74941137	     72.01145856	      0.00000000	      0.00000000	     10.24643994	    -25.79443711	     26.66167528	     53.79769065	     77.82751962	      0.00000000	      0.00000000
      0.98800000	     17.81109205	      4.18632500	      4.32753607	      1.51768219	      0.97523219	     -0.37268497	      5.72114068	     -6.71696152	     -7.43509064	     25.75621995	      0.44953084	     -7.35959216	      0.00000000	      0.00000000	    -29.01200730	      6.86136963	      4.91955263	      5.00503302	      0.08735431	     -7.23765771	      0.00000000	      0.00000000	    -31.99677682	     -1.93638024	     -9.06392848	      1.38607647	    -14.37913148	      7.57691591	     43.71991087	     71.96370147	      0.00000000	      0.00000000	     10.43453339	    -25.86600174	     26.75650976	     53.89653882	     77.84312667	      0.00000000	      0.00000000
      0.99200000	     17.56717183	      4.24149045	      4.35317608	      1.52220914	      0.97423695	     -0.37271254	      6.27566462	     -6.69316426	     -7.52386878	     24.72309813	      0.43149946	     -7.81570610	      0.00000000	      0.00000000	    -29.08732869	      6.90169935	      4.91859393	      4.96435788	      0.08664439	     -7.12068444	      0.00000000	      0.00000000	    -31.85706530	     -1.97572355	     -9.15103379	      1.54530842	    -14.26403091	      7.43300503	     43.56788965	     71.84320217	      0.00000000	      0.00000000	     10.71803309	    -25.88028622	     26.78942342	     53.81275304	     77.85657594	      0.00000000	      0.00000000
      0.99600000	     17.31386447	      4.34857768	      4.31545571	      1.52703126	      0.97310102	     -0.37284415	      6.87248400	     -6.70873325	     -7.73741507	     23.84229226	      0.41612650	     -8.11557835	      0.00000000	      0.00000000	    -29.17561796	      7.03267344	      4.79217161	      4.93012918	      0.08604699	     -6.98814610	      0.00000000	      0.00000000	    -31.66296881	     -2.08459188	     -9.19828101	      1.64602572	    -14.20521637	      7.39085824	     43.35882157	     71.81178497	      0.00000000	      0.00000000	     10.94903254	    -25.90954615	     26.86554296	     53.82134666	     77.87787931	      0.00000000	      0.00000000
      1.00000000	     17.07052799	      4.47453697	      4.26590143	      1.53188047	      0.97192184	     -0.37277458	      7.51669768	     -6.76030242	     -7.98825054	     23.10529350	      0.40326345	     -8.15427075	      0.00000000	      0.00000000	    -29.25129034	      7.17992613	      4.64704936	      4.93956553	      0.08621168	     -6.83765269	      0.00000000	      0.00000000	    -31.50628089	     -2.21371586	     -9.25974175	      1.74032483	    -14.08539928	      7.39615696	     43.44599926	     71.71696063	      0.00000000	      0.00000000	     11.12478305	    -25.98374471	     26.88633845	     53.89360181	     77.90938088	      0.00000000	      0.00000000
